<?xml version="1.0" encoding="UTF-8" standalone="no"?>
<!DOCTYPE svg PUBLIC "-//W3C//DTD SVG 1.1//EN" "http://www.w3.org/Graphics/SVG/1.1/DTD/svg11.dtd">
<svg width="100%" height="100%" viewBox="0 0 48 48" version="1.1" xmlns="http://www.w3.org/2000/svg" xmlns:xlink="http://www.w3.org/1999/xlink" xml:space="preserve" xmlns:serif="http://www.serif.com/" style="fill-rule:evenodd;clip-rule:evenodd;stroke-linejoin:round;stroke-miterlimit:2;">
    <g>
        <g>
            <path d="M48,11.25L48,36.75C48,42.959 42.959,48 36.75,48L11.25,48C5.041,48 0,42.959 0,36.75L0,11.25C0,5.041 5.041,0 11.25,0L36.75,0C42.959,0 48,5.041 48,11.25Z" style="fill:rgb(0,89,156);"/>
            <path d="M20.767,39.472C12.211,39.472 5.25,32.511 5.25,23.955C5.25,15.399 12.211,8.438 20.767,8.438C26.288,8.438 31.438,11.409 34.205,16.191L27.49,20.077C26.104,17.683 23.528,16.196 20.767,16.196C16.489,16.196 13.009,19.677 13.009,23.955C13.009,28.233 16.489,31.713 20.767,31.713C23.529,31.713 26.105,30.226 27.49,27.832L34.205,31.718C31.438,36.501 26.289,39.472 20.767,39.472Z" style="fill:white;fill-rule:nonzero;"/>
            <path d="M36.284,23.093L34.56,23.093L34.56,21.368L32.836,21.368L32.836,23.093L31.112,23.093L31.112,24.817L32.836,24.817L32.836,26.541L34.56,26.541L34.56,24.817L36.284,24.817L36.284,23.093Z" style="fill:white;fill-rule:nonzero;"/>
            <path d="M42.75,23.093L41.026,23.093L41.026,21.368L39.302,21.368L39.302,23.093L37.578,23.093L37.578,24.817L39.302,24.817L39.302,26.541L41.026,26.541L41.026,24.817L42.75,24.817L42.75,23.093Z" style="fill:white;fill-rule:nonzero;"/>
        </g>
    </g>
</svg>
