<?xml version="1.0" encoding="UTF-8" standalone="no"?>
<!DOCTYPE svg PUBLIC "-//W3C//DTD SVG 1.1//EN" "http://www.w3.org/Graphics/SVG/1.1/DTD/svg11.dtd">
<svg width="100%" height="100%" viewBox="0 0 48 48" version="1.1" xmlns="http://www.w3.org/2000/svg" xmlns:xlink="http://www.w3.org/1999/xlink" xml:space="preserve" xmlns:serif="http://www.serif.com/" style="fill-rule:evenodd;clip-rule:evenodd;stroke-linejoin:round;stroke-miterlimit:2;">
    <g>
        <g>
            <path d="M48,11.25L48,36.75C48,42.959 42.959,48 36.75,48L11.25,48C5.041,48 0,42.959 0,36.75L0,11.25C0,5.041 5.041,0 11.25,0L36.75,0C42.959,0 48,5.041 48,11.25Z" style="fill:rgb(149,60,173);"/>
            <path d="M36.644,18.875L36.644,21.402L39.171,21.402L39.171,18.875L40.434,18.875L40.434,21.402L42.96,21.402L42.96,22.665L40.434,22.665L40.434,25.191L42.96,25.191L42.96,26.454L40.434,26.454L40.434,28.981L39.171,28.981L39.171,26.454L36.644,26.454L36.644,28.981L35.381,28.981L35.381,26.454L32.855,26.454L32.855,25.191L35.381,25.191L35.381,22.665L32.855,22.665L32.855,21.402L35.381,21.402L35.381,18.875L36.644,18.875ZM39.171,22.665L36.644,22.665L36.644,25.191L39.171,25.191L39.171,22.665Z" style="fill:white;fill-rule:nonzero;"/>
            <path d="M22.875,6.188C29.465,6.188 35.218,9.766 38.299,15.086L38.269,15.034L30.516,19.498C28.989,16.912 26.188,15.167 22.976,15.131L22.875,15.13C17.977,15.13 14.005,19.101 14.005,24C14.005,25.602 14.432,27.103 15.175,28.4C16.704,31.07 19.578,32.87 22.875,32.87C26.192,32.87 29.083,31.047 30.604,28.349L30.567,28.414L38.308,32.898C35.261,38.173 29.586,41.74 23.074,41.811L22.875,41.813C16.265,41.813 10.495,38.212 7.422,32.864C5.921,30.254 5.063,27.227 5.063,24C5.063,14.163 13.037,6.188 22.875,6.188Z" style="fill:white;fill-rule:nonzero;"/>
        </g>
    </g>
</svg>
