<?xml version="1.0" encoding="UTF-8" standalone="no"?>
<!DOCTYPE svg PUBLIC "-//W3C//DTD SVG 1.1//EN" "http://www.w3.org/Graphics/SVG/1.1/DTD/svg11.dtd">
<svg width="100%" height="100%" viewBox="0 0 48 48" version="1.1" xmlns="http://www.w3.org/2000/svg" xmlns:xlink="http://www.w3.org/1999/xlink" xml:space="preserve" xmlns:serif="http://www.serif.com/" style="fill-rule:evenodd;clip-rule:evenodd;stroke-linejoin:round;stroke-miterlimit:2;">
    <g>
        <g>
            <path d="M48,11.25L48,36.75C48,42.959 42.959,48 36.75,48L11.25,48C5.041,48 0,42.959 0,36.75L0,11.25C0,5.041 5.041,0 11.25,0L36.75,0C42.959,0 48,5.041 48,11.25Z" style="fill:rgb(2,119,189);"/>
            <path d="M10.079,19.247L10.615,25.236L24.018,25.236L24.018,19.247L10.079,19.247Z" style="fill:rgb(235,235,235);fill-rule:nonzero;"/>
            <path d="M24.018,7.125L9,7.125L9.544,13.114L24.018,13.114L24.018,7.125Z" style="fill:rgb(235,235,235);fill-rule:nonzero;"/>
            <path d="M24.018,41.033L24.018,34.802L23.992,34.808L17.321,33.008L16.895,28.231L10.883,28.231L11.722,37.635L23.99,41.04L24.018,41.033Z" style="fill:rgb(235,235,235);fill-rule:nonzero;"/>
            <path d="M31.372,25.236L30.677,33.004L23.997,34.807L23.997,41.037L36.275,37.635L36.365,36.623L37.773,20.855L37.919,19.247L39,7.125L23.997,7.125L23.997,13.114L32.436,13.114L31.892,19.247L23.997,19.247L23.997,25.236L31.372,25.236Z" style="fill:white;fill-rule:nonzero;"/>
        </g>
    </g>
</svg>
