<?xml version="1.0" encoding="UTF-8" standalone="no"?>
<!DOCTYPE svg PUBLIC "-//W3C//DTD SVG 1.1//EN" "http://www.w3.org/Graphics/SVG/1.1/DTD/svg11.dtd">
<svg width="100%" height="100%" viewBox="0 0 48 48" version="1.1" xmlns="http://www.w3.org/2000/svg" xmlns:xlink="http://www.w3.org/1999/xlink" xml:space="preserve" xmlns:serif="http://www.serif.com/" style="fill-rule:evenodd;clip-rule:evenodd;stroke-linejoin:round;stroke-miterlimit:2;">
    <g>
        <g>
            <path d="M48,11.25L48,36.75C48,42.959 42.959,48 36.75,48L11.25,48C5.041,48 0,42.959 0,36.75L0,11.25C0,5.041 5.041,0 11.25,0L36.75,0C42.959,0 48,5.041 48,11.25Z" style="fill:url(#_Radial1);"/>
            <path d="M48,11.25L48,36.75C48,42.959 42.959,48 36.75,48L11.25,48C5.041,48 0,42.959 0,36.75L0,11.25C0,5.041 5.041,0 11.25,0L36.75,0C42.959,0 48,5.041 48,11.25Z" style="fill:url(#_Radial2);"/>
            <path d="M24.002,5.25C18.91,5.25 18.27,5.272 16.27,5.363C14.274,5.455 12.912,5.771 11.72,6.234C10.486,6.713 9.44,7.354 8.398,8.397C7.355,9.439 6.714,10.485 6.234,11.718C5.769,12.91 5.453,14.273 5.363,16.268C5.273,18.269 5.25,18.908 5.25,24C5.25,29.093 5.273,29.73 5.363,31.729C5.455,33.726 5.771,35.088 6.234,36.28C6.714,37.514 7.354,38.56 8.397,39.602C9.439,40.645 10.485,41.287 11.717,41.766C12.91,42.23 14.273,42.546 16.269,42.637C18.269,42.728 18.908,42.75 23.999,42.75C29.092,42.75 29.729,42.728 31.729,42.637C33.725,42.546 35.089,42.23 36.282,41.766C37.515,41.287 38.56,40.645 39.602,39.602C40.645,38.56 41.285,37.514 41.766,36.281C42.227,35.088 42.543,33.725 42.637,31.73C42.727,29.73 42.75,29.093 42.75,24C42.75,18.908 42.727,18.269 42.637,16.269C42.543,14.273 42.227,12.91 41.766,11.718C41.285,10.485 40.645,9.439 39.602,8.397C38.559,7.354 37.516,6.713 36.281,6.234C35.086,5.771 33.723,5.455 31.727,5.363C29.726,5.272 29.09,5.25 23.996,5.25L24.002,5.25ZM22.32,8.629C22.819,8.628 23.376,8.629 24.002,8.629C29.008,8.629 29.601,8.647 31.578,8.737C33.407,8.82 34.399,9.126 35.06,9.382C35.935,9.722 36.559,10.129 37.214,10.785C37.871,11.441 38.277,12.066 38.618,12.941C38.874,13.601 39.18,14.593 39.263,16.422C39.353,18.398 39.373,18.992 39.373,23.996C39.373,29 39.353,29.594 39.263,31.57C39.18,33.398 38.874,34.391 38.618,35.051C38.278,35.926 37.871,36.549 37.214,37.205C36.558,37.861 35.935,38.267 35.06,38.607C34.4,38.865 33.407,39.17 31.578,39.253C29.602,39.343 29.008,39.362 24.002,39.362C18.995,39.362 18.402,39.343 16.425,39.253C14.597,39.169 13.605,38.863 12.943,38.607C12.068,38.267 11.443,37.861 10.787,37.204C10.131,36.548 9.725,35.925 9.384,35.049C9.127,34.389 8.822,33.397 8.738,31.569C8.648,29.592 8.631,28.998 8.631,23.991C8.631,18.984 8.648,18.393 8.738,16.417C8.822,14.589 9.127,13.597 9.384,12.936C9.724,12.061 10.131,11.436 10.787,10.779C11.443,10.123 12.068,9.717 12.943,9.376C13.604,9.118 14.597,8.814 16.425,8.73C18.155,8.652 18.825,8.628 22.32,8.624L22.32,8.629ZM34.01,11.742C32.768,11.742 31.76,12.749 31.76,13.991C31.76,15.234 32.768,16.242 34.01,16.242C35.253,16.242 36.26,15.234 36.26,13.991C36.26,12.749 35.253,11.741 34.01,11.741L34.01,11.742ZM24.002,14.371C18.684,14.371 14.373,18.683 14.373,24C14.373,29.318 18.684,33.627 24.002,33.627C29.319,33.627 33.629,29.318 33.629,24C33.629,18.683 29.319,14.371 24.001,14.371L24.002,14.371ZM24.002,17.75C27.453,17.75 30.252,20.548 30.252,24C30.252,27.452 27.453,30.25 24.002,30.25C20.55,30.25 17.752,27.452 17.752,24C17.752,20.548 20.55,17.75 24.002,17.75Z" style="fill:white;fill-rule:nonzero;"/>
        </g>
    </g>
    <defs>
        <radialGradient id="_Radial1" cx="0" cy="0" r="1" gradientUnits="userSpaceOnUse" gradientTransform="matrix(-1.82131e-14,-47.5716,44.2453,-1.69396e-14,12.7501,51.6969)"><stop offset="0" style="stop-color:rgb(255,221,85);stop-opacity:1"/><stop offset="0.1" style="stop-color:rgb(255,221,85);stop-opacity:1"/><stop offset="0.5" style="stop-color:rgb(255,84,62);stop-opacity:1"/><stop offset="1" style="stop-color:rgb(200,55,171);stop-opacity:1"/></radialGradient>
        <radialGradient id="_Radial2" cx="0" cy="0" r="1" gradientUnits="userSpaceOnUse" gradientTransform="matrix(4.17381,20.8511,-85.949,17.2046,-8.04026,3.45784)"><stop offset="0" style="stop-color:rgb(55,113,200);stop-opacity:1"/><stop offset="0.13" style="stop-color:rgb(55,113,200);stop-opacity:1"/><stop offset="1" style="stop-color:rgb(102,0,255);stop-opacity:0"/></radialGradient>
    </defs>
</svg>
