<?xml version="1.0" encoding="UTF-8" standalone="no"?>
<!DOCTYPE svg PUBLIC "-//W3C//DTD SVG 1.1//EN" "http://www.w3.org/Graphics/SVG/1.1/DTD/svg11.dtd">
<svg width="100%" height="100%" viewBox="0 0 48 48" version="1.1" xmlns="http://www.w3.org/2000/svg" xmlns:xlink="http://www.w3.org/1999/xlink" xml:space="preserve" xmlns:serif="http://www.serif.com/" style="fill-rule:evenodd;clip-rule:evenodd;stroke-linejoin:round;stroke-miterlimit:2;">
    <g>
        <g>
            <path d="M48,11.25L48,36.75C48,42.959 42.959,48 36.75,48L11.25,48C5.041,48 0,42.959 0,36.75L0,11.25C0,5.041 5.041,0 11.25,0L36.75,0C42.959,0 48,5.041 48,11.25Z" style="fill:rgb(240,219,79);"/>
            <path d="M12.621,40.112L16.294,37.889C17.003,39.146 17.648,40.209 19.194,40.209C20.676,40.209 21.611,39.629 21.611,37.374L21.611,22.037L26.121,22.037L26.121,37.438C26.121,42.109 23.383,44.236 19.387,44.236C15.779,44.236 13.684,42.367 12.621,40.112" style="fill:rgb(50,51,48);fill-rule:nonzero;"/>
            <path d="M28.571,39.629L32.244,37.502C33.211,39.081 34.468,40.241 36.691,40.241C38.56,40.241 39.752,39.307 39.752,38.018C39.752,36.471 38.527,35.924 36.465,35.022L35.338,34.538C32.083,33.153 29.924,31.413 29.924,27.74C29.924,24.356 32.502,21.779 36.53,21.779C39.398,21.779 41.46,22.778 42.942,25.388L39.43,27.643C38.656,26.258 37.819,25.71 36.53,25.71C35.209,25.71 34.371,26.548 34.371,27.643C34.371,28.996 35.209,29.544 37.142,30.382L38.27,30.865C42.104,32.509 44.263,34.184 44.263,37.953C44.263,42.014 41.073,44.237 36.787,44.237C32.599,44.237 29.892,42.239 28.571,39.629" style="fill:rgb(50,51,48);fill-rule:nonzero;"/>
        </g>
    </g>
</svg>
