<?xml version="1.0" encoding="UTF-8" standalone="no"?>
<!DOCTYPE svg PUBLIC "-//W3C//DTD SVG 1.1//EN" "http://www.w3.org/Graphics/SVG/1.1/DTD/svg11.dtd">
<svg width="100%" height="100%" viewBox="0 0 48 48" version="1.1" xmlns="http://www.w3.org/2000/svg" xmlns:xlink="http://www.w3.org/1999/xlink" xml:space="preserve" xmlns:serif="http://www.serif.com/" style="fill-rule:evenodd;clip-rule:evenodd;stroke-linejoin:round;stroke-miterlimit:2;">
    <g>
        <g>
            <path d="M48,11.25L48,36.75C48,42.959 42.959,48 36.75,48L11.25,48C5.041,48 0,42.959 0,36.75L0,11.25C0,5.041 5.041,0 11.25,0L36.75,0C42.959,0 48,5.041 48,11.25Z" style="fill:rgb(36,41,56);"/>
            <g>
                <path d="M38.213,33.414C36.377,33.363 34.953,33.551 33.76,34.054C33.416,34.192 32.864,34.192 32.819,34.624C33.003,34.806 33.025,35.103 33.186,35.354C33.461,35.811 33.944,36.426 34.379,36.745L35.848,37.795C36.743,38.341 37.753,38.661 38.625,39.209C39.131,39.528 39.635,39.939 40.14,40.281C40.398,40.464 40.553,40.761 40.875,40.874L40.875,40.805C40.715,40.601 40.668,40.304 40.508,40.075L39.819,39.414C39.154,38.525 38.327,37.748 37.432,37.11C36.697,36.608 35.091,35.924 34.793,35.081L34.747,35.03C35.252,34.978 35.848,34.801 36.331,34.664C37.112,34.46 37.823,34.505 38.625,34.299L39.728,33.98L39.728,33.775C39.315,33.365 39.016,32.817 38.581,32.43C37.41,31.426 36.124,30.445 34.793,29.624C34.081,29.168 33.163,28.871 32.405,28.484C32.129,28.347 31.671,28.278 31.51,28.05C31.096,27.549 30.867,26.887 30.569,26.294L28.687,22.325C28.274,21.435 28.021,20.545 27.517,19.724C25.152,15.846 22.581,13.497 18.633,11.192C17.784,10.713 16.774,10.507 15.7,10.257L13.979,10.165C13.611,10.005 13.244,9.572 12.923,9.366C11.615,8.545 8.24,6.766 7.276,9.111C6.656,10.593 8.194,12.053 8.716,12.806C9.107,13.331 9.611,13.924 9.887,14.517C10.042,14.904 10.093,15.315 10.254,15.726C10.621,16.73 10.966,17.848 11.448,18.783C11.705,19.262 11.975,19.765 12.297,20.198C12.48,20.454 12.802,20.563 12.87,20.974C12.549,21.43 12.527,22.114 12.343,22.685C11.516,25.263 11.838,28.456 13.008,30.354C13.376,30.924 14.243,32.179 15.419,31.7C16.452,31.289 16.222,29.989 16.52,28.848C16.589,28.575 16.543,28.392 16.68,28.209L16.68,28.26L17.622,30.154C18.333,31.271 19.573,32.435 20.606,33.211C21.156,33.622 21.593,34.329 22.281,34.58L22.281,34.511L22.236,34.511C22.098,34.306 21.891,34.214 21.707,34.055C21.294,33.644 20.835,33.142 20.514,32.686C19.55,31.409 18.701,29.994 17.943,28.534C17.576,27.827 17.254,27.052 16.957,26.344C16.818,26.071 16.818,25.659 16.589,25.523C16.244,26.024 15.74,26.459 15.486,27.075C15.05,28.055 15.005,29.264 14.844,30.519C14.752,30.542 14.793,30.519 14.752,30.57C14.018,30.388 13.765,29.635 13.49,28.996C12.801,27.377 12.686,24.776 13.283,22.906C13.443,22.427 14.133,20.921 13.858,20.465C13.719,20.031 13.261,19.781 13.008,19.438C12.709,19.005 12.389,18.458 12.182,17.979C11.631,16.7 11.356,15.287 10.759,14.009C10.483,13.416 10.001,12.8 9.611,12.253C9.174,11.637 8.693,11.203 8.349,10.474C8.234,10.218 8.073,9.812 8.257,9.538C8.302,9.355 8.395,9.282 8.578,9.241C8.876,8.986 9.726,9.31 10.024,9.446C10.873,9.789 11.585,10.108 12.296,10.586C12.618,10.814 12.962,11.248 13.376,11.362L13.858,11.362C14.593,11.522 15.418,11.413 16.106,11.618C17.323,12.006 18.424,12.576 19.412,13.193C22.419,15.086 24.898,17.778 26.573,20.995C26.849,21.519 26.963,21.998 27.217,22.546C27.699,23.664 28.296,24.804 28.777,25.9C29.26,26.972 29.718,28.068 30.407,28.957C30.752,29.436 32.128,29.687 32.748,29.938C33.207,30.142 33.918,30.326 34.332,30.577C35.112,31.056 35.893,31.603 36.627,32.128C36.993,32.401 38.142,32.972 38.21,33.427L38.213,33.414ZM14.805,13.591C14.488,13.589 14.171,13.627 13.864,13.705L13.864,13.757L13.91,13.757C14.093,14.122 14.415,14.373 14.644,14.692L15.173,15.787L15.218,15.736C15.539,15.508 15.7,15.143 15.7,14.596C15.563,14.437 15.54,14.276 15.425,14.117C15.287,13.889 14.989,13.774 14.805,13.592L14.805,13.591Z" style="fill:white;"/>
            </g>
        </g>
    </g>
</svg>
