<?xml version="1.0" encoding="UTF-8" standalone="no"?>
<!DOCTYPE svg PUBLIC "-//W3C//DTD SVG 1.1//EN" "http://www.w3.org/Graphics/SVG/1.1/DTD/svg11.dtd">
<svg width="100%" height="100%" viewBox="0 0 48 48" version="1.1" xmlns="http://www.w3.org/2000/svg" xmlns:xlink="http://www.w3.org/1999/xlink" xml:space="preserve" xmlns:serif="http://www.serif.com/" style="fill-rule:evenodd;clip-rule:evenodd;stroke-linejoin:round;stroke-miterlimit:2;">
    <g>
        <g>
            <path d="M48,11.25L48,36.75C48,42.959 42.959,48 36.75,48L11.25,48C5.041,48 0,42.959 0,36.75L0,11.25C0,5.041 5.041,0 11.25,0L36.75,0C42.959,0 48,5.041 48,11.25Z" style="fill:rgb(36,41,56);"/>
            <path d="M9.217,18.796L14.544,18.796C16.107,18.809 17.24,19.26 17.942,20.148C18.645,21.035 18.876,22.248 18.638,23.785C18.545,24.487 18.34,25.176 18.022,25.852C17.717,26.527 17.293,27.137 16.75,27.68C16.087,28.369 15.378,28.806 14.623,28.992C13.868,29.178 13.086,29.27 12.278,29.27L9.893,29.27L9.138,33.046L6.375,33.046L9.217,18.796ZM11.543,21.062L10.35,27.024C10.43,27.037 10.509,27.044 10.589,27.044L10.867,27.044C12.139,27.057 13.199,26.932 14.047,26.667C14.895,26.388 15.465,25.421 15.756,23.765C15.995,22.374 15.756,21.572 15.04,21.36C14.338,21.148 13.457,21.049 12.397,21.062C12.238,21.075 12.086,21.082 11.94,21.082L11.523,21.082L11.543,21.062" style="fill:white;fill-rule:nonzero;"/>
            <path d="M21.785,15L24.528,15L23.753,18.796L26.217,18.796C27.569,18.823 28.575,19.101 29.238,19.631C29.914,20.161 30.112,21.168 29.834,22.652L28.503,29.27L25.72,29.27L26.992,22.95C27.124,22.287 27.085,21.817 26.873,21.539C26.661,21.261 26.204,21.121 25.502,21.121L23.295,21.102L21.666,29.27L18.923,29.27L21.785,15Z" style="fill:white;fill-rule:nonzero;"/>
            <path d="M32.78,18.796L38.106,18.796C39.669,18.809 40.802,19.26 41.505,20.148C42.207,21.035 42.439,22.248 42.2,23.785C42.108,24.487 41.902,25.176 41.584,25.852C41.279,26.527 40.856,27.137 40.312,27.68C39.65,28.369 38.941,28.806 38.186,28.992C37.43,29.178 36.648,29.27 35.84,29.27L33.455,29.27L32.7,33.046L29.937,33.046L32.78,18.796ZM35.105,21.062L33.912,27.024C33.992,27.037 34.071,27.044 34.151,27.044L34.429,27.044C35.701,27.057 36.761,26.932 37.609,26.667C38.457,26.388 39.027,25.421 39.318,23.765C39.557,22.374 39.318,21.572 38.603,21.36C37.901,21.148 37.02,21.049 35.96,21.062C35.801,21.075 35.648,21.082 35.502,21.082L35.085,21.082L35.105,21.062" style="fill:white;fill-rule:nonzero;"/>
        </g>
    </g>
</svg>
