<?xml version="1.0" encoding="UTF-8" standalone="no"?>
<!DOCTYPE svg PUBLIC "-//W3C//DTD SVG 1.1//EN" "http://www.w3.org/Graphics/SVG/1.1/DTD/svg11.dtd">
<svg width="100%" height="100%" viewBox="0 0 128 128" version="1.1" xmlns="http://www.w3.org/2000/svg" xmlns:xlink="http://www.w3.org/1999/xlink" xml:space="preserve" xmlns:serif="http://www.serif.com/" style="fill-rule:evenodd;clip-rule:evenodd;stroke-linejoin:round;stroke-miterlimit:2;">
    <g transform="matrix(1,0,0,1,-256,0)">
        <g id="Dotsimpel" transform="matrix(1,0,0,1,256,0)">
            <rect x="0" y="0" width="128" height="128" style="fill:none;"/>
            <g transform="matrix(0.235586,0,0,0.235586,9.97504,44.6306)">
                <g transform="matrix(4.24474,0,0,4.24474,-42.3414,-189.445)">
                    <rect x="0" y="0" width="128" height="128" style="fill:rgb(0,48,63);"/>
                </g>
                <g transform="matrix(2.35193,0,0,2.35193,-202.505,-311.952)">
                    <g transform="matrix(1,0,0,1,29.1774,1.49541)">
                        <path d="M231.369,216.563C231.369,213.058 230.142,210.079 227.689,207.626C225.236,205.173 222.257,203.947 218.754,203.947C215.25,203.947 212.24,205.173 209.73,207.626C207.277,210.079 206.05,213.058 206.05,216.563C206.05,220.067 207.277,223.075 209.73,225.587C212.24,228.04 215.249,229.266 218.754,229.266C222.258,229.266 225.236,228.04 227.689,225.587C230.143,223.075 231.369,220.067 231.369,216.563Z" style="fill:rgb(238,124,42);fill-rule:nonzero;"/>
                    </g>
                    <g transform="matrix(1,0,0,1,29.1774,1.49541)">
                        <path d="M100.828,228.303L100.828,102.931L133.77,102.931C151.059,102.931 165.836,109.064 178.101,121.329C190.309,133.595 196.412,148.372 196.412,165.66C196.412,182.891 190.309,197.639 178.101,209.904C165.836,222.17 151.059,228.303 133.77,228.303L100.828,228.303ZM119.753,209.378L133.77,209.378C145.802,209.378 156.111,205.086 164.697,196.5C173.225,187.972 177.489,177.693 177.489,165.66C177.489,153.571 173.225,143.261 164.697,134.734C156.111,126.148 145.802,121.854 133.77,121.854L119.753,121.854L119.753,209.378L119.753,209.378Z" style="fill:white;fill-rule:nonzero;"/>
                    </g>
                </g>
            </g>
        </g>
    </g>
</svg>
