<?xml version="1.0" encoding="UTF-8" standalone="no"?>
<!DOCTYPE svg PUBLIC "-//W3C//DTD SVG 1.1//EN" "http://www.w3.org/Graphics/SVG/1.1/DTD/svg11.dtd">
<svg width="100%" height="100%" viewBox="0 0 128 128" version="1.1" xmlns="http://www.w3.org/2000/svg" xmlns:xlink="http://www.w3.org/1999/xlink" xml:space="preserve" xmlns:serif="http://www.serif.com/" style="fill-rule:evenodd;clip-rule:evenodd;stroke-linejoin:round;stroke-miterlimit:2;">
    <g transform="matrix(1,0,0,1,-384,0)">
        <g id="Hanze" transform="matrix(1,0,0,1,384,0)">
            <rect x="0" y="0" width="128" height="128" style="fill:none;"/>
            <clipPath id="_clip1">
                <rect x="0" y="0" width="128" height="128"/>
            </clipPath>
            <g clip-path="url(#_clip1)">
                <g transform="matrix(2.33253,0,0,2.33253,0.277571,0)">
                    <g transform="matrix(0.428719,0,0,0.428719,-0.119,0)">
                        <rect x="0" y="0" width="128" height="128" style="fill:white;"/>
                    </g>
                    <g transform="matrix(1.00436,0,0,1,-0.119,-1.562)">
                        <path d="M9.452,29.289C13.991,29.153 19.091,28.354 20.298,25.141C20.417,23.747 18.751,22.608 17.034,21.826C14.875,21.146 12.121,21.282 10.234,21.792C9.384,21.469 8.466,20.874 7.956,20.313C11.543,18.562 15.912,17.083 21.199,18.46C23.409,18.936 25.364,19.922 27.319,20.908C29.478,19.769 30.872,18.086 31.824,16.437C33.065,14.074 31.297,11.388 28.339,9.518C25.959,7.682 22.933,6.781 19.635,7.07L17.085,7.376L15.776,5.778C19.567,3.67 25.84,3.517 30.872,5.132C34.34,6.271 37.706,8.464 40.222,10.555C41.65,9.62 43.112,8.566 44.693,7.631C39.95,3.84 33.966,1.562 27.438,1.562C12.291,1.562 0,13.853 0,29L0,29.085C3.196,29.204 6.443,29.408 9.452,29.289ZM1.479,31.652C1.037,31.533 0.578,31.431 0.102,31.346C1.292,45.405 13.073,56.438 27.438,56.438C29.852,56.438 32.198,56.115 34.442,55.537C27.982,46.323 16.422,35.902 1.479,31.652ZM51.408,42.362C43.911,39.812 35.581,38.384 27.302,37.483C27.302,37.483 33.694,42.09 44.064,50.828C47.056,48.55 49.555,45.66 51.408,42.362ZM35.343,34.559C44.081,33.488 51.731,28.082 54.638,25.413C54.145,21.673 52.904,18.171 51.068,15.06C36.261,29.612 23.732,31.737 14.909,32.485C14.909,32.485 25.653,35.749 35.343,34.559Z" style="fill:rgb(238,127,0);fill-rule:nonzero;"/>
                    </g>
                </g>
            </g>
        </g>
    </g>
</svg>
