<?xml version="1.0" encoding="UTF-8" standalone="no"?>
<!DOCTYPE svg PUBLIC "-//W3C//DTD SVG 1.1//EN" "http://www.w3.org/Graphics/SVG/1.1/DTD/svg11.dtd">
<svg width="100%" height="100%" viewBox="0 0 128 128" version="1.1" xmlns="http://www.w3.org/2000/svg" xmlns:xlink="http://www.w3.org/1999/xlink" xml:space="preserve" xmlns:serif="http://www.serif.com/" style="fill-rule:evenodd;clip-rule:evenodd;stroke-linejoin:round;stroke-miterlimit:2;">
    <g transform="matrix(1,0,0,1,-128,0)">
        <g id="ALDI-Nord" serif:id="ALDI Nord" transform="matrix(1,0,0,1,128,0)">
            <rect x="0" y="0" width="128" height="128" style="fill:none;"/>
            <clipPath id="_clip1">
                <rect x="0" y="0" width="128" height="128"/>
            </clipPath>
            <g clip-path="url(#_clip1)">
                <g transform="matrix(0.475551,0,0,0.475551,1.58331,1.58069)">
                    <g transform="matrix(2.10282,0,0,2.10282,-3.32942,-3.32391)">
                        <rect x="0" y="0" width="128" height="128" style="fill:white;"/>
                    </g>
                    <g transform="matrix(0.93027,0,0,0.93027,58.2245,54.8541)">
                        <g transform="matrix(1,0,0,1,-2.65,-2.655)">
                            <path d="M156.632,163.9L156.632,5.669L5.669,5.669L5.669,163.9L156.632,163.9ZM150.593,157.873L11.708,157.873L11.708,11.7L150.593,11.7L150.593,157.874L150.593,157.873Z" style="fill:rgb(197,23,24);fill-rule:nonzero;"/>
                        </g>
                        <g transform="matrix(1,0,0,1,-14.575,-102.231)">
                            <rect x="31.181" y="218.268" width="123.789" height="31.646" style="fill:rgb(32,43,120);fill-rule:nonzero;"/>
                        </g>
                        <g transform="matrix(1,0,0,1,-24.513,-105.549)">
                            <path d="M153.586,249.466L153.586,225.353L142.728,225.353L142.728,249.465L153.586,249.466ZM140.286,237.412C140.304,230.816 134.892,225.373 128.296,225.354L112.252,225.354L112.252,249.466L128.3,249.466C134.895,249.448 140.307,244.007 140.29,237.412L140.286,237.412ZM130.314,237.412C130.403,240.194 128.189,242.558 125.407,242.651L123.082,242.651L123.082,232.171L125.41,232.171C128.189,232.267 130.399,234.629 130.31,237.409L130.314,237.412ZM89.655,249.466L110.162,249.466L110.162,242.5L100.681,242.5L100.681,225.353L89.655,225.353L89.655,249.466ZM77.281,249.466L88.228,249.466L75.856,225.353L64.813,225.353L52.441,249.466L63.389,249.466L64.553,246.931L76.116,246.931L77.281,249.466ZM72.869,240.585L67.8,240.585L70.27,235.233L72.869,240.585Z" style="fill:white;fill-rule:nonzero;"/>
                        </g>
                        <g transform="matrix(1,0,0,1,-21.007,-14.604)">
                            <path d="M141.44,127.627C143.133,124.617 143.99,121.209 143.923,117.756C143.846,113.706 142.167,111.102 139.872,107.663L106.331,57.391L111.79,49.169L149.123,104.9C152.196,109.483 153.953,112.906 154.076,118.016C154.038,121.343 153.277,124.623 151.845,127.626L141.44,127.627ZM98.965,31.181L49.893,104.9C46.821,109.483 45.063,112.906 44.94,118.016C44.978,121.343 45.739,124.622 47.17,127.626L57.576,127.626C55.883,124.616 55.026,121.208 55.093,117.755C55.171,113.705 56.85,111.101 59.144,107.662L109.859,31.18L98.965,31.181ZM68.318,109.561L127.666,109.561L123.612,103.486L72.312,103.486L69.939,107.038C69.4,107.85 68.838,108.72 68.318,109.561Z" style="fill:rgb(0,182,237);fill-rule:nonzero;"/>
                        </g>
                        <g transform="matrix(1,0,0,1,-12.588,-14.604)">
                            <path d="M144.966,127.627C145.242,127.033 145.378,126.679 145.591,126.113C146.673,123.542 147.253,120.788 147.3,118C147.171,112.644 145.306,109.054 142.2,104.426L104.259,47.855L108.648,41.289L149.925,103.089C153.548,108.516 155.247,111.682 155.247,116.722C155.247,122.465 153.714,124.998 152.547,127.631L144.966,127.627ZM121.803,127.627L131.249,127.627C133.017,124.649 133.921,121.236 133.859,117.773C133.786,114.002 132.251,111.587 129.951,108.142L96.973,58.756L92.692,65.175L120.656,107.038C123.147,110.767 125.226,114.123 125.412,117.532C125.613,121.243 124.312,124.884 121.805,127.627L121.803,127.627ZM79.927,31.181L32.254,103.081C28.63,108.507 26.931,111.674 26.929,116.714C26.929,122.458 28.463,124.988 29.629,127.623L37.244,127.623C37.044,127.174 36.826,126.662 36.612,126.098C35.593,123.52 35.072,120.772 35.076,118C35.204,112.644 37.07,109.054 40.176,104.425L88.927,31.185L79.927,31.181ZM103.058,31.181L52.026,108.143C49.726,111.587 48.191,114.002 48.118,117.774C48.056,121.237 48.959,124.65 50.727,127.628L60.376,127.628C57.869,124.884 56.568,121.244 56.769,117.533C56.819,116.631 56.967,115.737 57.211,114.867L122.154,114.867C121.722,113.484 121.057,112.184 120.187,111.025L59.02,111.025C59.726,109.798 60.653,108.339 61.52,107.039L64.869,102.026L114.213,102.026L111.513,97.979L67.575,97.979L111.841,31.179L103.058,31.181Z" style="fill:rgb(32,43,120);fill-rule:nonzero;"/>
                        </g>
                    </g>
                </g>
            </g>
        </g>
    </g>
</svg>
