<?xml version="1.0" encoding="UTF-8" standalone="no"?>
<!DOCTYPE svg PUBLIC "-//W3C//DTD SVG 1.1//EN" "http://www.w3.org/Graphics/SVG/1.1/DTD/svg11.dtd">
<svg width="100%" height="100%" viewBox="0 0 128 128" version="1.1" xmlns="http://www.w3.org/2000/svg" xmlns:xlink="http://www.w3.org/1999/xlink" xml:space="preserve" xmlns:serif="http://www.serif.com/" style="fill-rule:evenodd;clip-rule:evenodd;stroke-linejoin:round;stroke-miterlimit:2;">
    <rect id="Alfa-college" x="0" y="0" width="128" height="128" style="fill:none;"/>
    <g id="Alfa-college1" serif:id="Alfa-college">
        <g transform="matrix(1.25355,0,0,1.25355,25.3467,17.5116)">
            <g transform="matrix(0.797733,0,0,0.797733,-20.2199,-13.9696)">
                <rect x="0" y="0" width="128" height="128" style="fill:white;"/>
            </g>
            <g transform="matrix(0.933333,0,0,0.933333,0.268446,13.1568)">
                <g transform="matrix(1,0,0,1,0.324879,-7.4681)">
                    <path d="M18.86,9.15L0.92,60.03L20.28,60.03L23.42,49.49L40.92,49.49L43.87,60.04L63.93,60.04L55.92,37.32L26.4,37.32L35.44,9.15L18.86,9.15Z" style="fill:rgb(228,5,33);fill-rule:nonzero;"/>
                </g>
                <g transform="matrix(1,0,0,1,0.324879,-7.4681)">
                    <path d="M44.17,0.21L34.17,31.51L54.37,31.51L44.17,0.21Z" style="fill:rgb(1,67,143);fill-rule:nonzero;"/>
                </g>
            </g>
        </g>
    </g>
</svg>
